<svg width="100" height="100" viewBox="0 0 100 100" fill="none" xmlns="http://www.w3.org/2000/svg">
<path d="M57.4682 0.199556C54.9805 1.00218 52.8673 3.22279 52.2788 5.65743C52.1718 6.05874 51.9311 7.42321 51.7171 8.6539C51.2891 11.1153 49.8714 15.6368 48.1327 20.0512L47.0359 22.8872L45.4845 23.0477C44.6552 23.128 43.7725 23.2617 43.5585 23.342C43.2643 23.449 42.9968 23.2082 42.6223 22.5394C42.3548 22.031 41.4185 20.9341 40.5626 20.1582C38.8506 18.553 36.9514 17.6968 34.2229 17.3223C32.3237 17.0547 28.7928 17.3758 28.1775 17.8841C27.1075 18.767 28.3648 24.2516 30.1035 26.2315C30.478 26.6328 30.3175 26.8468 28.6323 28.5323C25.4758 31.7161 25.5561 32.6525 29.194 33.8297C32.3772 34.8731 36.8444 35.0336 39.2518 34.2042L40.9638 33.6424L41.4988 34.1775L42.0338 34.7126L41.0173 35.9968C38.0748 39.6354 32.6179 44.4779 28.124 47.3941L26.1713 48.6515L25.1281 47.6081C23.7103 46.1901 22.7474 45.9494 19.5374 46.2704C18.1197 46.4042 16.2205 46.5647 15.3377 46.6182C6.10916 47.3138 3.91569 47.5546 2.95271 48.0897C2.33747 48.4107 1.16049 49.695 0.785999 50.4708C-0.176984 52.3169 -0.283982 68.7975 0.625502 75.272C1.26749 80.0075 2.25722 84.5023 3.46095 88.1141C4.82518 92.2342 7.36638 97.4781 8.62361 98.6553C10.1751 100.154 10.8171 100.234 20.8214 99.6987C29.0603 99.2439 29.7825 99.1904 30.799 98.6285C32.2167 97.8259 32.9389 96.5684 32.9657 94.8562L32.9924 93.5184L38.7436 93.679C46.1799 93.893 50.4599 94.4013 58.672 96.0066C71.9932 98.6018 75.5242 99.0833 79.9111 98.8693C83.335 98.682 84.9935 98.3075 87.1067 97.2373C90.8784 95.3377 93.2859 90.3079 92.1891 86.6694L91.8414 85.4922L93.1789 84.1009C94.7838 82.4422 95.8271 80.5961 96.4156 78.3755C96.9506 76.2084 96.7366 74.4962 95.6131 72.3291L94.7571 70.6971L96.0411 69.2523C98.8765 66.0686 99.9733 63.7142 100 60.8247C100 58.4704 99.3848 56.7046 98.0205 55.1528L96.9773 53.9756L97.5123 53.387C99.1173 51.5678 99.8663 49.1064 99.6523 46.2437C99.465 43.5682 98.8498 41.963 97.4588 40.4112C93.7406 36.2643 86.0368 35.4349 76.0592 38.1104C72.8492 38.9665 68.5961 39.5551 65.5466 39.5551C63.0856 39.5551 63.0589 39.5551 63.2462 38.9397C63.7009 37.4147 63.9416 37.1204 65.1989 36.5051C66.8841 35.6222 67.6331 34.6591 68.8368 31.6626C72.341 22.9674 72.4212 13.6837 69.0775 6.67409C67.9006 4.2662 65.5199 1.72455 63.4869 0.761396C62.0692 0.0657852 58.8057 -0.228512 57.4682 0.199556ZM61.5609 3.06226C63.5404 3.73112 63.6474 4.13244 61.9622 4.48024C60.3839 4.82805 55.783 5.28287 55.6225 5.12234C55.3818 4.93506 56.853 3.59735 57.8695 3.14252C59.1802 2.52718 59.956 2.50043 61.5609 3.06226ZM66.2956 7.44997C66.6968 8.41312 66.6166 8.49338 64.0219 9.96486C61.8017 11.2223 53.5361 14.5666 53.2686 14.3258C53.2418 14.2723 53.4023 13.657 53.6163 12.9346C53.8303 12.1855 54.1781 10.821 54.3653 9.85785L54.6863 8.11882L57.495 7.93154C60.1165 7.74426 63.8881 7.10216 65.0919 6.64734C65.7874 6.37979 65.8944 6.46006 66.2956 7.44997ZM68.2751 13.5232C68.9438 17.1618 68.9973 16.9745 66.7771 17.9911C63.5136 19.4894 58.565 20.5596 53.1081 20.9876L50.7541 21.1749L51.3961 19.4894L52.0113 17.8039L56.0238 16.4394C60.3572 14.9412 63.0589 13.764 65.7606 12.2122C66.7236 11.6771 67.5796 11.2223 67.6598 11.2223C67.7668 11.1956 68.0343 12.239 68.2751 13.5232ZM36.4966 20.8003C37.9411 21.4157 39.7601 23.1012 40.4021 24.4122C41.3383 26.2315 39.2518 27.3819 36.2291 26.713C34.4369 26.3117 33.6077 25.8301 32.5109 24.5459C31.5747 23.449 30.7187 21.5227 30.7187 20.4793C30.7187 19.971 30.8525 19.971 32.9389 20.078C34.3567 20.185 35.6406 20.4258 36.4966 20.8003ZM68.5961 21.496C68.4088 22.2718 65.5734 24.1981 62.4169 25.6696C58.9395 27.3016 55.5958 28.0775 51.3961 28.238L47.8652 28.3986L48.7212 26.2315L49.5771 24.0644L51.8509 23.9038C58.1905 23.449 63.4601 22.4591 66.9911 21.0144C68.6228 20.3455 68.8635 20.4258 68.5961 21.496ZM45.6985 26.0442C45.6985 26.0977 45.1367 27.4354 44.468 29.0139C43.3445 31.5288 43.184 31.7964 42.8095 31.4218C42.5955 31.2078 42.3548 30.4586 42.3013 29.7363C42.1943 28.6929 42.3013 28.2648 42.8095 27.5157C43.1572 27.0073 43.7457 26.4455 44.0935 26.2582C44.7622 25.9104 45.6985 25.8034 45.6985 26.0442ZM67.0713 28.238C66.0548 31.3415 65.0919 33.2678 64.2626 33.8029C63.1392 34.5253 55.8633 35.3547 51.9846 35.1674C49.2829 35.0604 46.9557 34.5788 45.966 33.9634C45.645 33.7494 45.645 33.5354 46.0997 32.492L46.6347 31.2613L50.7809 31.1542C54.1513 31.074 55.4353 30.9135 57.602 30.3516C60.7317 29.549 63.6474 28.3986 65.8944 27.1411C66.7771 26.6328 67.5261 26.2582 67.5796 26.3117C67.6331 26.3652 67.4191 27.2214 67.0713 28.238ZM34.5707 29.2547C35.2929 29.4687 36.6571 29.656 37.5934 29.656C38.5028 29.656 39.2786 29.763 39.2786 29.8968C39.2786 30.0306 39.3588 30.3249 39.4391 30.5656C39.7333 31.3415 38.0481 31.9034 35.3999 31.9034C33.0192 31.9034 30.1837 31.4218 30.1837 30.9937C30.1837 30.7262 32.6179 28.8801 32.9924 28.8534C33.1529 28.8534 33.8484 29.0407 34.5707 29.2547ZM47.7582 37.602C49.8179 38.1104 55.8098 38.1906 58.8057 37.7358C59.7687 37.602 60.5712 37.495 60.6247 37.5485C60.6514 37.5753 60.4642 38.4047 60.2235 39.3946C59.4477 42.3108 60.063 42.6586 65.8944 42.4178C70.201 42.2305 73.4645 41.7222 77.7979 40.5985C85.689 38.5384 91.9484 39.0735 95.0513 42.07C96.3621 43.3274 96.8703 44.7187 96.8703 47.1801C96.8971 49.2936 96.0946 50.9792 94.3558 52.4506C92.6171 53.9221 92.5904 54.8318 94.2756 55.6879C95.4793 56.3033 96.7098 57.8283 97.0843 59.1392C97.753 61.6541 96.6028 64.4098 93.5534 67.7273C92.2694 69.1186 91.7076 69.9479 91.7076 70.4295C91.7076 70.8041 92.2159 72.0348 92.8044 73.1852C93.8209 75.0848 93.9011 75.4058 93.7674 76.7703C93.5534 79.2317 92.0286 81.6396 89.5142 83.5391C88.364 84.3952 88.2837 84.9036 89.0327 86.2948C90.2364 88.5422 89.3804 91.7527 87.0532 93.786C84.9935 95.6053 83.8165 95.8728 78.0654 95.8728C72.662 95.8461 72.2875 95.7926 59.742 93.3312C56.0773 92.6088 51.6101 91.8329 49.8446 91.6189C46.7149 91.2443 38.5831 90.7092 33.9554 90.5755L31.6817 90.522L30.906 88.3816C29.1673 83.5391 27.4285 76.2084 26.5458 69.9212C26.0911 66.6037 25.8236 55.9822 26.1446 53.2265C26.3051 51.8353 26.3318 51.7818 27.6425 51.0594C29.3277 50.1498 32.9924 47.6884 34.1962 46.645C38.1283 43.2204 40.1078 41.3209 42.114 39.02L44.4412 36.3713L45.1902 36.7459C45.5915 36.9867 46.7684 37.3612 47.7582 37.602ZM19.7514 86.6426C20.3934 86.9904 20.8481 88.3816 20.5807 89.1307C20.2329 90.0404 19.5374 90.4952 18.5209 90.4952C17.13 90.4952 16.4077 89.5588 16.5147 87.9001C16.595 86.6961 18.4674 85.947 19.7514 86.6426Z" fill="#5C2C5D"/>
</svg>
