<svg width="64" height="64" viewBox="0 0 64 64" fill="none" xmlns="http://www.w3.org/2000/svg">
<path d="M36.7797 0.12772C35.1875 0.641399 33.8351 2.06259 33.4585 3.62076C33.39 3.8776 33.2359 4.75085 33.0989 5.5385C32.825 7.11379 31.9177 10.0075 30.8049 12.8328L30.103 14.6478L29.1101 14.7505C28.5793 14.8019 28.0144 14.8875 27.8774 14.9389C27.6891 15.0074 27.5179 14.8533 27.2782 14.4252C27.107 14.0999 26.5079 13.3978 25.96 12.9013C24.8644 11.8739 23.6489 11.326 21.9027 11.0863C20.6872 10.915 18.4274 11.1205 18.0336 11.4458C17.3488 12.0109 18.1534 15.5211 19.2662 16.7881C19.5059 17.045 19.4032 17.182 18.3246 18.2607C16.3045 20.2983 16.3559 20.8976 18.6842 21.651C20.7214 22.3188 23.5804 22.4215 25.1212 21.8907L26.2168 21.5311L26.5592 21.8736L26.9016 22.216L26.2511 23.0379C24.3679 25.3666 20.8755 28.4658 17.9994 30.3322L16.7496 31.137L16.082 30.4692C15.1746 29.5617 14.5583 29.4076 12.504 29.6131C11.5966 29.6987 10.3811 29.8014 9.81616 29.8357C3.90986 30.2808 2.50604 30.435 1.88973 30.7774C1.49598 30.9829 0.742715 31.8048 0.50304 32.3013C-0.11327 33.4828 -0.181749 44.0304 0.400321 48.1741C0.811194 51.2048 1.44462 54.0814 2.21501 56.393C3.08811 59.0299 4.71449 62.386 5.51911 63.1394C6.51205 64.0982 6.92293 64.1496 13.3257 63.8072C18.5986 63.5161 19.0608 63.4818 19.7113 63.1222C20.6187 62.6086 21.0809 61.8038 21.098 60.7079L21.1152 59.8518L24.7959 59.9545C29.5552 60.0915 32.2943 60.4169 37.5501 61.4442C46.0757 63.1051 48.3355 63.4133 51.1431 63.2764C53.3344 63.1565 54.3959 62.9168 55.7483 62.2319C58.1622 61.0162 59.703 57.7971 59.001 55.4684L58.7785 54.715L59.6345 53.8246C60.6617 52.763 61.3293 51.5815 61.706 50.1603C62.0484 48.7734 61.9114 47.6775 61.1924 46.2906L60.6445 45.2461L61.4663 44.3215C63.281 42.2839 63.9829 40.7771 64 38.9278C64 37.421 63.6062 36.2909 62.7331 35.2978L62.0655 34.5444L62.4079 34.1677C63.4351 33.0034 63.9144 31.4281 63.7774 29.5959C63.6576 27.8837 63.2639 26.8563 62.3736 25.8632C59.994 23.2092 55.0635 22.6784 48.6779 24.3906C46.6235 24.9386 43.9015 25.3153 41.9498 25.3153C40.3748 25.3153 40.3577 25.3153 40.4775 24.9214C40.7686 23.9454 40.9227 23.7571 41.7273 23.3633C42.8058 22.7982 43.2852 22.1818 44.0556 20.2641C46.2982 14.6992 46.3496 8.75757 44.2096 4.27142C43.4564 2.73037 41.9327 1.10371 40.6316 0.487297C39.7243 0.0421066 37.6357 -0.146248 36.7797 0.12772ZM39.399 1.95985C40.6659 2.38792 40.7343 2.64476 39.6558 2.86736C38.6457 3.08995 35.7011 3.38103 35.5984 3.2783C35.4443 3.15844 36.3859 2.3023 37.0365 2.01122C37.8753 1.61739 38.3718 1.60027 39.399 1.95985ZM42.4292 4.76798C42.686 5.3844 42.6346 5.43576 40.974 6.37751C39.5531 7.18229 34.2631 9.32262 34.0919 9.16852C34.0748 9.13427 34.1775 8.74045 34.3144 8.27814C34.4514 7.7987 34.674 6.92545 34.7938 6.30902L34.9992 5.19605L36.7968 5.07619C38.4745 4.95633 40.8884 4.54538 41.6588 4.2543C42.1039 4.08307 42.1724 4.13444 42.4292 4.76798ZM43.696 8.65484C44.124 10.9835 44.1583 10.8637 42.7373 11.5143C40.6487 12.4732 37.4816 13.1581 33.9892 13.4321L32.4826 13.5519L32.8935 12.4732L33.2873 11.3945L35.8552 10.5212C38.6286 9.56234 40.3577 8.80894 42.0868 7.81583C42.7031 7.47337 43.2509 7.18229 43.3023 7.18229C43.3708 7.16516 43.542 7.83295 43.696 8.65484ZM23.3578 13.3122C24.2823 13.706 25.4464 14.7848 25.8573 15.6238C26.4565 16.7881 25.1212 17.5244 23.1866 17.0963C22.0396 16.8395 21.5089 16.5313 20.807 15.7094C20.2078 15.0074 19.66 13.7745 19.66 13.1068C19.66 12.7814 19.7456 12.7814 21.0809 12.8499C21.9883 12.9184 22.81 13.0725 23.3578 13.3122ZM43.9015 13.7574C43.7816 14.254 41.967 15.4868 39.9468 16.4286C37.7213 17.473 35.5813 17.9696 32.8935 18.0723L30.6337 18.1751L31.1815 16.7881L31.7294 15.4012L33.1845 15.2985C37.2419 15.0074 40.6145 14.3738 42.8743 13.4492C43.9186 13.0211 44.0727 13.0725 43.9015 13.7574ZM29.247 16.6683C29.247 16.7025 28.8875 17.5587 28.4595 18.5689C27.7405 20.1784 27.6378 20.3497 27.3981 20.1099C27.2611 19.973 27.1071 19.4935 27.0728 19.0312C27.0043 18.3634 27.0728 18.0895 27.3981 17.61C27.6206 17.2847 27.9973 16.9251 28.2198 16.8053C28.6478 16.5827 29.247 16.5142 29.247 16.6683ZM42.9257 18.0723C42.2751 20.0586 41.6588 21.2914 41.1281 21.6339C40.4091 22.0962 35.7525 22.627 33.2701 22.5071C31.5411 22.4386 30.0516 22.1304 29.4182 21.7366C29.2128 21.5996 29.2128 21.4626 29.5038 20.7949L29.8462 20.0072L32.4998 19.9387C34.6568 19.8874 35.4786 19.7846 36.8653 19.425C38.8683 18.9114 40.7343 18.1751 42.1724 17.3703C42.7373 17.045 43.2167 16.8053 43.2509 16.8395C43.2852 16.8737 43.1482 17.4217 42.9257 18.0723ZM22.1252 18.723C22.5875 18.86 23.4606 18.9798 24.0597 18.9798C24.6418 18.9798 25.1383 19.0483 25.1383 19.1339C25.1383 19.2196 25.1896 19.4079 25.241 19.562C25.4293 20.0586 24.3508 20.4182 22.6559 20.4182C21.1323 20.4182 19.3176 20.1099 19.3176 19.836C19.3176 19.6648 20.8755 18.4833 21.1152 18.4662C21.2179 18.4662 21.663 18.586 22.1252 18.723ZM30.5652 24.0653C31.8834 24.3906 35.7183 24.442 37.6357 24.1509C38.252 24.0653 38.7656 23.9968 38.7998 24.031C38.8169 24.0482 38.6971 24.579 38.543 25.2125C38.0465 27.0789 38.4403 27.3015 42.1724 27.1474C44.9287 27.0275 47.0173 26.7022 49.7907 25.983C54.841 24.6646 58.847 25.007 60.8329 26.9248C61.6717 27.7296 61.997 28.6199 61.997 30.1952C62.0141 31.5479 61.5005 32.6267 60.3877 33.5684C59.275 34.5102 59.2578 35.0923 60.3364 35.6403C61.1068 36.0341 61.8943 37.0101 62.134 37.8491C62.562 39.4586 61.8258 41.2223 59.8742 43.3455C59.0524 44.2359 58.6929 44.7667 58.6929 45.0749C58.6929 45.3146 59.0182 46.1023 59.3948 46.8385C60.0453 48.0542 60.0967 48.2597 60.0111 49.133C59.8742 50.7083 58.8983 52.2493 57.2891 53.465C56.5529 54.013 56.5016 54.3383 56.9809 55.2287C57.7513 56.667 57.2035 58.7217 55.7141 60.023C54.3959 61.1874 53.6426 61.3586 49.9619 61.3586C46.5037 61.3415 46.264 61.3072 38.2349 59.7319C35.8895 59.2696 33.0305 58.7731 31.9006 58.6361C29.8976 58.3964 24.6932 58.0539 21.7315 57.9683L20.2763 57.9341L19.7798 56.5642C18.667 53.465 17.5543 48.7734 16.9893 44.7496C16.6983 42.6263 16.5271 35.8286 16.7325 34.065C16.8352 33.1746 16.8524 33.1403 17.6912 32.678C18.7698 32.0959 21.1152 30.5206 21.8855 29.8528C24.4021 27.6611 25.669 26.4454 26.953 24.9728L28.4424 23.2776L28.9217 23.5174C29.1785 23.6715 29.9318 23.9112 30.5652 24.0653ZM12.6409 55.4513C13.0518 55.6739 13.3428 56.5642 13.1716 57.0437C12.9491 57.6259 12.504 57.9169 11.8534 57.9169C10.9632 57.9169 10.5009 57.3176 10.5694 56.256C10.6208 55.4855 11.8192 55.0061 12.6409 55.4513Z" fill="#5C2C5D"/>
</svg>
